<?xml version="1.0" encoding="UTF-8" standalone="no"?>
<svg
   width="100"
   height="100"
   viewBox="0 0 36 35"
   version="1.1"
   id="svg1"
   sodipodi:docname="slug-black.svg"
   inkscape:version="1.4 (e7c3feb1, 2024-10-09)"
   inkscape:export-filename="slug.png"
   inkscape:export-xdpi="576"
   inkscape:export-ydpi="576"
   xmlns:inkscape="http://www.inkscape.org/namespaces/inkscape"
   xmlns:sodipodi="http://sodipodi.sourceforge.net/DTD/sodipodi-0.dtd"
   xmlns="http://www.w3.org/2000/svg"
   xmlns:svg="http://www.w3.org/2000/svg">
  <defs
     id="defs1" />
  <sodipodi:namedview
     id="namedview1"
     pagecolor="#ffffff"
     bordercolor="#000000"
     borderopacity="0.25"
     inkscape:showpageshadow="2"
     inkscape:pageopacity="0.0"
     inkscape:pagecheckerboard="0"
     inkscape:deskcolor="#d1d1d1"
     inkscape:zoom="3.7615115"
     inkscape:cx="31.503293"
     inkscape:cy="59.417604"
     inkscape:window-width="1712"
     inkscape:window-height="958"
     inkscape:window-x="2338"
     inkscape:window-y="113"
     inkscape:window-maximized="0"
     inkscape:current-layer="svg1" />
  <path
     id="path1"
     style="fill:#000000;stroke:none;stroke-width:0.513484"
     d="m 26.617811,9.2252555 c -2.79871,-0.946797 -5.83501,-1.314909 -8.559131,0.135857 0,-1.710385 -0.234005,-3.608052 0.02003,-5.298507 0.151493,-1.008119 0.987251,-1.583572 0.742091,-2.717184 -0.352013,-1.62773996 -2.453968,-2.23115 -3.561588,-0.93675594 -1.09869,1.28395794 0.01792,2.28084494 0.311346,3.51808094 0.39757,1.676514 0.290745,4.545192 0.02254,6.2489975 -0.114265,0.725881 -0.833106,1.073382 -1.326302,1.53429 -0.732454,0.684499 -1.357317,1.539793 -1.856012,2.406153 -1.576713,2.739163 -1.567455,5.988358 -3.21072,8.694986 -1.518201,2.500639 -4.016078,3.668229 -5.8230719,5.843941 -0.888173,1.069396 -1.578721,2.552095 -1.012343,3.93792 1.235025,3.021885 5.7315229,2.717185 8.3576469,2.717185 h 9.102564 c 4.70104,0 9.73558,-0.12856 11.75675,-5.298507 1.69639,-4.339198 0.99234,-10.908023 -0.48086,-15.216227 -0.48034,-1.404717 -1.81944,-2.691131 -2.13212,-4.075777 -0.40998,-1.8154575 -0.29814,-4.8148505 -0.0212,-6.6571025 0.16718,-1.11209 1.10309,-1.725936 0.70645,-2.9889019 -0.59015,-1.8791261 -3.45461,-1.7591921 -3.91465,0.135859 -0.31403,1.2935389 0.68567,1.7611109 0.85855,2.8583909 0.25813,1.638306 0.02,3.49774 0.02,5.157302 M 15.477323,18.245529 c 1.007686,-0.231899 2.229273,-0.05357 3.260628,-0.05357 h 6.52124 c 1.05773,0 2.66334,-0.307659 3.51808,0.445421 0.80718,0.711175 0.69355,1.705577 0.69355,2.679342 0,2.126063 0.0543,4.260126 -0.002,6.385378 -0.0222,0.837271 -0.35562,1.674403 -1.22127,1.949204 -0.99828,0.316901 -2.35517,0.08868 -3.39595,0.08868 h -6.928825 c -1.059876,0 -2.560768,0.288567 -3.365555,-0.561572 -0.651816,-0.688555 -0.574363,-1.686773 -0.574363,-2.563186 0,-2.131547 -0.324198,-4.558152 0.04467,-6.657104 0.139396,-0.793219 0.631041,-1.524183 1.449796,-1.712601 m 2.586776,2.752303 c -1.919099,0.632601 -0.844121,3.643093 1.081431,3.062179 2.18735,-0.659903 1.07477,-3.772943 -1.081431,-3.062179 m 4.633891,0.419737 c -0.55505,0.251088 -0.56621,1.200272 0,1.447489 0.74324,0.324506 3.55538,0.358617 4.28418,0 0.5222,-0.256957 0.37234,-1.254543 -0.1128,-1.46636 -0.77176,-0.336958 -3.40451,-0.328039 -4.17138,0.01884 m 0.13051,3.101702 c -0.65281,0.210811 -0.76733,1.284967 -0.11961,1.587537 0.72885,0.340471 3.15235,0.326894 3.89411,0.0189 0.67402,-0.2799 0.65219,-1.295139 -0.004,-1.583347 -0.79162,-0.34804 -2.9516,-0.287721 -3.77114,-0.02306 m -4.633999,0.688309 c -0.646686,0.06237 -2.766957,1.35723 -1.451258,2.004969 0.802888,0.395279 3.007697,0.211976 3.888767,0.06185 0.80998,-0.138014 0.52177,-1.121135 0.0902,-1.534397 -0.61141,-0.585535 -1.73426,-0.60896 -2.527759,-0.532426 z" />
</svg>
